# xmcd
#
# Track frame offsets: 
#        150
#        14891
#        32446
#        49376
#        61635
#        76491
#        90424
#        104369
#        116609
#        131766
#        140921
#        160143
#
# Disc length: 2383 seconds
#
# Revision: 2
# Processed by: cddbd v1.5.2PL0 Copyright (c) Steve Scherf et al.
# Submitted via: ExactAudioCopy v1.0b3
#
DISCID=a1094d0c
DTITLE=The Jon Spencer Blues Explosion - Meat and Bone
DYEAR=2012
DGENRE=Bluesrock
TTITLE0=Black Mold
TTITLE1=Bag of Bones
TTITLE2=Boot Cut
TTITLE3=Get Your Pants Off
TTITLE4=Ice Cream Killer
TTITLE5=Strange Baby
TTITLE6=Bottle Baby
TTITLE7=Danger
TTITLE8=Black Thoughts
TTITLE9=Unclear
TTITLE10=Bear Trap
TTITLE11=Zimgar
EXTD=
EXTT0=
EXTT1=
EXTT2=
EXTT3=
EXTT4=
EXTT5=
EXTT6=
EXTT7=
EXTT8=
EXTT9=
EXTT10=
EXTT11=
PLAYORDER=
